<svg width="200" height="200" viewBox="0 0 200 200" fill="none" xmlns="http://www.w3.org/2000/svg">
<path opacity="0.1" d="M100 199.999C155.229 199.999 200 155.228 200 99.9994C200 44.7713 155.229 0 100 0C44.7716 0 0 44.7713 0 99.9994C0 155.228 44.7716 199.999 100 199.999Z" fill="#5E4A96"/>
<path d="M56.7357 70.0039C57.0972 69.5985 57.5351 69.2684 58.0242 69.0322C58.5134 68.7961 59.0442 68.6586 59.5865 68.6276C60.1288 68.5966 60.6718 68.6728 61.1847 68.8516C61.6976 69.0305 62.1701 69.3087 62.5755 69.6702L75.7753 81.4431L70.269 87.6168L57.0691 75.8439C56.6638 75.4823 56.3336 75.0445 56.0974 74.5553C55.8613 74.0661 55.7238 73.5352 55.6929 72.9929C55.6619 72.4506 55.738 71.9076 55.917 71.3947C56.0959 70.8818 56.3741 70.4092 56.7357 70.0039Z" fill="white"/>
<path d="M70.3007 88.1932L56.797 76.1486C56.3516 75.7514 55.9888 75.2703 55.7294 74.7329C55.4699 74.1954 55.3188 73.6121 55.2847 73.0163C55.2507 72.4205 55.3343 71.8238 55.5309 71.2603C55.7274 70.6968 56.0331 70.1775 56.4303 69.7321C56.8275 69.2867 57.3086 68.9239 57.8461 68.6644C58.3835 68.4049 58.9668 68.2539 59.5627 68.2198C60.1585 68.1858 60.7552 68.2694 61.3187 68.4659C61.8822 68.6625 62.4015 68.9681 62.8469 69.3654L76.3521 81.4102L70.3007 88.1932ZM59.8256 69.0291C59.7533 69.0291 59.6808 69.0311 59.6081 69.0352C58.8721 69.0774 58.165 69.337 57.5765 69.781C56.9879 70.2251 56.5442 70.8336 56.3015 71.5298C56.0588 72.226 56.028 72.9786 56.213 73.6923C56.398 74.406 56.7904 75.0488 57.3407 75.5395L70.2358 87.0406L75.1982 81.4769L62.3032 69.9758C61.623 69.3652 60.7409 69.028 59.8268 69.0291H59.8256Z" fill="#321E6B"/>
<path d="M129.73 87.6162L124.224 81.4428L137.424 69.6699C138.243 68.9397 139.318 68.5647 140.413 68.6273C141.508 68.6898 142.534 69.1849 143.264 70.0035C143.994 70.8222 144.369 71.8974 144.307 72.9925C144.244 74.0877 143.749 75.1131 142.93 75.8433L129.73 87.6162Z" fill="white"/>
<path d="M129.698 88.1927L123.648 81.4097L137.153 69.3649C138.053 68.5626 139.234 68.1506 140.438 68.2193C141.641 68.2881 142.768 68.8321 143.57 69.7316C144.372 70.6311 144.784 71.8125 144.715 73.0158C144.647 74.2192 144.103 75.3459 143.203 76.1482L129.698 88.1927ZM124.802 81.4758L129.764 87.0395L142.659 75.539C143.025 75.2131 143.322 74.8185 143.535 74.3777C143.748 73.9369 143.872 73.4584 143.9 72.9697C143.928 72.481 143.859 71.9915 143.698 71.5293C143.537 71.0671 143.286 70.6412 142.96 70.2759C142.634 69.9106 142.24 69.613 141.799 69.4002C141.358 69.1874 140.88 69.0635 140.391 69.0356C139.902 69.0077 139.413 69.0763 138.95 69.2375C138.488 69.3987 138.062 69.6494 137.697 69.9753L124.802 81.4758Z" fill="#321E6B"/>
<path d="M135.228 95.274C138.173 108.313 142.204 116.701 140.196 121.519C139.141 124.051 136.976 126.175 133.391 126.175C127.803 126.175 127.803 119.585 122.214 119.585C116.626 119.585 116.627 126.175 111.039 126.175C105.451 126.175 105.452 119.585 99.8646 119.585C94.2774 119.585 94.2771 126.175 88.6896 126.175C83.1021 126.175 83.1024 119.585 77.5152 119.585C71.928 119.585 71.9286 126.175 66.342 126.175C63.025 126.175 61.1499 124.221 59.9608 121.964C57.1031 116.54 63.7633 104.606 66.342 94.0812C69.1912 82.4519 68.9512 67.9667 69.3335 59.2303C70.0709 42.3827 83.0031 28.6958 99.8682 28.6958C116.733 28.6958 129.175 42.4113 130.403 59.2303C131.065 68.2975 132.533 83.3382 135.228 95.274Z" fill="white"/>
<path d="M133.391 126.587C130.406 126.587 128.923 124.838 127.488 123.145C126.115 121.525 124.818 119.995 122.214 119.995C119.611 119.995 118.315 121.525 116.941 123.145C115.506 124.836 114.023 126.587 111.039 126.587C108.055 126.587 106.572 124.838 105.138 123.145C103.764 121.525 102.467 119.995 99.8646 119.995C97.2621 119.995 95.9658 121.525 94.5914 123.145C93.1571 124.836 91.6743 126.587 88.6896 126.587C85.7049 126.587 84.2215 124.838 82.7899 123.147C81.4165 121.527 80.1195 119.997 77.5167 119.997C74.914 119.997 73.6179 121.527 72.2442 123.147C70.8105 124.838 69.3277 126.589 66.3436 126.589C63.3753 126.589 61.1688 125.139 59.5977 122.157C57.6053 118.376 59.9982 111.69 62.5322 104.613C63.7905 101.097 65.0908 97.4622 65.9436 93.9859C68.2223 84.6852 68.5108 73.7567 68.7423 64.9749C68.7968 62.8979 68.8486 60.9357 68.925 59.2148C69.2905 50.8753 72.6064 43.1137 78.263 37.359C81.0745 34.4779 84.4356 32.1904 88.1473 30.6321C91.859 29.0737 95.8457 28.2762 99.8713 28.2867C103.871 28.2773 107.831 29.0772 111.513 30.6385C115.195 32.1998 118.524 34.4901 121.297 37.3715C126.823 43.061 130.204 50.8147 130.817 59.2029C131.408 67.2911 132.818 82.7202 135.633 95.186C136.588 99.414 137.656 103.149 138.599 106.444C140.567 113.325 141.99 118.296 140.579 121.68C139.813 123.512 137.863 126.587 133.391 126.587ZM122.214 119.173C125.199 119.173 126.682 120.922 128.117 122.615C129.49 124.234 130.788 125.764 133.391 125.764C137.386 125.764 139.131 123.006 139.816 121.361C141.116 118.243 139.725 113.388 137.804 106.669C136.86 103.363 135.786 99.6169 134.827 95.3663C132 82.8475 130.585 67.3724 129.992 59.2617C128.737 42.0717 115.786 29.1088 99.8679 29.1088C83.7165 29.1088 70.4846 42.348 69.7435 59.2495C69.6685 60.9632 69.6168 62.9217 69.5607 64.995C69.3405 73.3506 69.0386 84.7936 66.7389 94.1805C65.8772 97.698 64.5684 101.354 63.3031 104.889C60.8322 111.791 58.4984 118.312 60.322 121.773C61.7372 124.458 63.7052 125.763 66.339 125.763C68.9415 125.763 70.2378 124.233 71.6116 122.614C73.0453 120.922 74.5281 119.172 77.5122 119.172C80.4963 119.172 81.9797 120.921 83.4134 122.614C84.7868 124.233 86.0838 125.763 88.6866 125.763C91.2893 125.763 92.5869 124.233 93.96 122.614C95.3943 120.922 96.8771 119.172 99.8615 119.172C102.846 119.172 104.329 120.921 105.763 122.614C107.136 124.233 108.433 125.763 111.036 125.763C113.639 125.763 114.936 124.233 116.31 122.614C117.747 120.923 119.23 119.173 122.214 119.173Z" fill="#321E6B"/>
<path d="M88.3944 61.2004C90.2637 61.2004 91.7791 59.6851 91.7791 57.8158C91.7791 55.9465 90.2637 54.4312 88.3944 54.4312C86.5251 54.4312 85.0098 55.9465 85.0098 57.8158C85.0098 59.6851 86.5251 61.2004 88.3944 61.2004Z" fill="#321E6B"/>
<path d="M111.603 61.2004C113.473 61.2004 114.988 59.6851 114.988 57.8158C114.988 55.9465 113.473 54.4312 111.603 54.4312C109.734 54.4312 108.219 55.9465 108.219 57.8158C108.219 59.6851 109.734 61.2004 111.603 61.2004Z" fill="#321E6B"/>
<path d="M106.061 66.9507C106.256 66.9502 106.449 66.9933 106.626 67.0768C106.803 67.1603 106.958 67.2821 107.082 67.4333C107.206 67.5846 107.294 67.7615 107.34 67.9512C107.387 68.1409 107.391 68.3387 107.352 68.53C106.626 71.9235 103.61 74.0565 99.9998 74.0565C96.3894 74.0565 93.3736 71.9244 92.6481 68.53C92.6087 68.3386 92.6125 68.1409 92.6591 67.9512C92.7058 67.7614 92.7941 67.5845 92.9178 67.4332C93.0414 67.282 93.1972 67.1602 93.3739 67.0767C93.5505 66.9932 93.7436 66.9502 93.939 66.9507H106.061Z" fill="white"/>
<path d="M99.9991 74.4683C96.1094 74.4683 92.9934 72.1165 92.2447 68.6158C92.1914 68.3666 92.1947 68.1086 92.2544 67.8609C92.314 67.6131 92.4286 67.3819 92.5895 67.1843C92.7517 66.9827 92.9571 66.8202 93.1906 66.7087C93.424 66.5972 93.6795 66.5396 93.9383 66.54H106.061C106.32 66.5396 106.575 66.5973 106.809 66.7088C107.042 66.8203 107.248 66.9828 107.41 67.1843C107.571 67.3819 107.685 67.6131 107.745 67.8609C107.805 68.1086 107.808 68.3666 107.755 68.6158C107.005 72.1165 103.888 74.4683 99.9991 74.4683ZM93.9376 67.3624C93.8017 67.3623 93.6675 67.3927 93.5449 67.4513C93.4223 67.5099 93.3144 67.5953 93.2292 67.7011C93.1456 67.8036 93.0861 67.9235 93.055 68.0521C93.024 68.1806 93.0222 68.3144 93.0497 68.4437C93.7147 71.5546 96.5072 73.6447 99.9985 73.6447C103.49 73.6447 106.282 71.5546 106.948 68.4437C106.975 68.3144 106.973 68.1805 106.942 68.052C106.911 67.9234 106.851 67.8036 106.768 67.7011C106.682 67.5953 106.574 67.5099 106.452 67.4513C106.329 67.3927 106.195 67.3623 106.059 67.3624H93.9376Z" fill="#321E6B"/>
<path d="M179.559 160.592C161.289 184.545 132.45 200 100.002 200C67.553 200 38.714 184.545 20.4443 160.592C41.3 152.746 69.2618 147.948 100.002 147.948C130.741 147.948 158.702 152.746 179.559 160.592Z" fill="#5E4A96"/>
<path d="M187.951 52.3732L136.63 52.1539C136.63 43.5826 141.458 41.8952 146.59 40.5032C151.723 39.1112 154.031 29.6902 162.95 29.1541C168.217 28.8373 170.979 30.1927 173.267 31.9381C173.27 31.9411 173.27 31.9441 173.273 31.9441C179.004 38.1106 183.936 44.9743 187.951 52.3732Z" fill="white"/>
<path d="M41.5564 116.06L1.31329 116.234C0.625899 112.032 0.208762 107.791 0.0644531 103.536C8.87944 102.287 7.97784 95.2812 18.5047 95.9178C26.3145 96.3868 28.3431 104.638 32.8359 105.857C37.3286 107.075 41.5564 108.557 41.5564 116.06Z" fill="white"/>
</svg>
