<svg width="25" height="24" viewBox="0 0 25 24" fill="none" xmlns="http://www.w3.org/2000/svg">
<path d="M1.7 17.6993C1.38174 17.6993 1.07652 17.5729 0.851472 17.3479C0.626428 17.1228 0.5 16.8176 0.5 16.4993C0.5 16.1811 0.626428 15.8759 0.851472 15.6508C1.07652 15.4258 1.38174 15.2993 1.7 15.2993H14.3C15.5 15.2993 16.7 17.6993 16.1 17.6993H1.7ZM18.5 17.6993C18.1817 17.6993 17.8765 17.5729 17.6515 17.3479C17.4264 17.1228 17.3 16.8176 17.3 16.4993C17.3 16.1811 17.4264 15.8759 17.6515 15.6508C17.8765 15.4258 18.1817 15.2993 18.5 15.2993H23.3C23.6183 15.2993 23.9235 15.4258 24.1485 15.6508C24.3736 15.8759 24.5 16.1811 24.5 16.4993C24.5 16.8176 24.3736 17.1228 24.1485 17.3479C23.9235 17.5729 23.6183 17.6993 23.3 17.6993H18.5ZM13.2596 1.50054C13.4184 1.22461 13.6803 1.02307 13.9877 0.940253C14.2952 0.857437 14.6229 0.900131 14.8988 1.05894C15.1747 1.21775 15.3763 1.47967 15.4591 1.78708C15.5419 2.09449 15.4992 2.42221 15.3404 2.69814L7.052 17.0933C6.97344 17.23 6.86874 17.3498 6.74388 17.446C6.61902 17.5421 6.47644 17.6127 6.32428 17.6538C6.17212 17.6949 6.01337 17.7056 5.85708 17.6853C5.70079 17.665 5.55003 17.6141 5.4134 17.5355C5.27677 17.457 5.15696 17.3523 5.06079 17.2274C4.96463 17.1026 4.894 16.96 4.85293 16.8078C4.81187 16.6557 4.80118 16.4969 4.82147 16.3406C4.84177 16.1843 4.89264 16.0336 4.9712 15.8969L13.2596 1.50054ZM2.9 19.4993C3.5 18.2993 7.1 17.0993 5.9 19.1633C5.2489 20.2766 4.5957 21.3886 3.9404 22.4993C3.78159 22.7753 3.51967 22.9768 3.21226 23.0596C2.90485 23.1424 2.57713 23.0998 2.3012 22.9409C2.02527 22.7821 1.82373 22.5202 1.74091 22.2128C1.65809 21.9054 1.70079 21.5777 1.8596 21.3017L2.9 19.4993ZM9.0596 2.69814C8.90079 2.42221 8.85809 2.09449 8.94091 1.78708C9.02373 1.47967 9.22527 1.21775 9.5012 1.05894C9.77713 0.900131 10.1048 0.857437 10.4123 0.940253C10.7197 1.02307 10.9816 1.22461 11.1404 1.50054L13.232 5.13534C13.3131 5.272 13.3663 5.42341 13.3885 5.58079C13.4106 5.73817 13.4013 5.89838 13.361 6.05212C13.3207 6.20586 13.2503 6.35006 13.1538 6.47637C13.0573 6.60267 12.9367 6.70855 12.799 6.78786C12.6613 6.86717 12.5092 6.91834 12.3515 6.93838C12.1939 6.95843 12.0338 6.94696 11.8806 6.90464C11.7274 6.86231 11.5842 6.78998 11.4592 6.69184C11.3341 6.5937 11.2299 6.47171 11.1524 6.33294L9.0596 2.69814ZM13.7 11.0993C12.6224 9.29934 13.7 5.69934 14.5592 7.49454L22.5392 21.2993C22.693 21.5748 22.7321 21.8998 22.6481 22.2039C22.5641 22.508 22.3637 22.7668 22.0903 22.9242C21.8169 23.0817 21.4925 23.1251 21.1873 23.0451C20.8821 22.9652 20.6207 22.7682 20.4596 22.4969L13.7 11.0993Z" fill="#EEEBF4"/>
</svg>
