<svg width="24" height="24" viewBox="0 0 24 24" fill="none" xmlns="http://www.w3.org/2000/svg">
<path d="M12 1.25C17.93 1.25 22.75 6.07 22.75 12C22.75 17.93 17.93 22.75 12 22.75C6.07 22.75 1.25 17.93 1.25 12C1.25 6.07 6.07 1.25 12 1.25ZM12 21.25C17.1 21.25 21.25 17.1 21.25 12C21.25 6.9 17.1 2.75 12 2.75C6.9 2.75 2.75 6.9 2.75 12C2.75 17.1 6.9 21.25 12 21.25Z" fill="#5E4A96"/>
<path d="M8.47 9.99C8.66 9.99 8.85 10.06 9 10.21L12 13.21L15 10.21C15.29 9.92 15.77 9.92 16.06 10.21C16.35 10.5 16.35 10.98 16.06 11.27L12.53 14.8C12.24 15.09 11.76 15.09 11.47 14.8L7.94 11.27C7.65 10.98 7.65 10.5 7.94 10.21C8.09 10.06 8.28 9.99 8.47 9.99Z" fill="#5E4A96"/>
</svg>
