<svg width="22" height="23" viewBox="0 0 22 23" fill="none" xmlns="http://www.w3.org/2000/svg">
<path d="M6.38 0.870972H15.62C19.14 0.870972 22 3.73097 22 7.25097V16.491C22 18.1831 21.3278 19.8058 20.1313 21.0023C18.9349 22.1988 17.3121 22.871 15.62 22.871H6.38C2.86 22.871 0 20.011 0 16.491V7.25097C0 5.55889 0.672177 3.93611 1.86866 2.73963C3.06514 1.54315 4.68792 0.870972 6.38 0.870972ZM6.16 3.07097C5.10974 3.07097 4.1025 3.48818 3.35986 4.23083C2.61721 4.97347 2.2 5.98071 2.2 7.03097V16.711C2.2 18.9 3.971 20.671 6.16 20.671H15.84C16.8903 20.671 17.8975 20.2538 18.6401 19.5111C19.3828 18.7685 19.8 17.7612 19.8 16.711V7.03097C19.8 4.84197 18.029 3.07097 15.84 3.07097H6.16ZM16.775 4.72097C17.1397 4.72097 17.4894 4.86584 17.7473 5.1237C18.0051 5.38156 18.15 5.7313 18.15 6.09597C18.15 6.46064 18.0051 6.81038 17.7473 7.06824C17.4894 7.32611 17.1397 7.47097 16.775 7.47097C16.4103 7.47097 16.0606 7.32611 15.8027 7.06824C15.5449 6.81038 15.4 6.46064 15.4 6.09597C15.4 5.7313 15.5449 5.38156 15.8027 5.1237C16.0606 4.86584 16.4103 4.72097 16.775 4.72097ZM11 6.37097C12.4587 6.37097 13.8576 6.95043 14.8891 7.98188C15.9205 9.01333 16.5 10.4123 16.5 11.871C16.5 13.3297 15.9205 14.7286 14.8891 15.7601C13.8576 16.7915 12.4587 17.371 11 17.371C9.54131 17.371 8.14236 16.7915 7.11091 15.7601C6.07946 14.7286 5.5 13.3297 5.5 11.871C5.5 10.4123 6.07946 9.01333 7.11091 7.98188C8.14236 6.95043 9.54131 6.37097 11 6.37097ZM11 8.57097C10.1248 8.57097 9.28542 8.91865 8.66655 9.53752C8.04768 10.1564 7.7 10.9958 7.7 11.871C7.7 12.7462 8.04768 13.5856 8.66655 14.2044C9.28542 14.8233 10.1248 15.171 11 15.171C11.8752 15.171 12.7146 14.8233 13.3335 14.2044C13.9523 13.5856 14.3 12.7462 14.3 11.871C14.3 10.9958 13.9523 10.1564 13.3335 9.53752C12.7146 8.91865 11.8752 8.57097 11 8.57097Z" fill="#5E4A96"/>
</svg>
