<svg width="27" height="26" viewBox="0 0 27 26" fill="none" xmlns="http://www.w3.org/2000/svg">
<path d="M7.73922 0H18.6592C22.8192 0 26.1992 3.38 26.1992 7.54V18.46C26.1992 20.4597 25.4048 22.3776 23.9908 23.7916C22.5768 25.2056 20.659 26 18.6592 26H7.73922C3.57922 26 0.199219 22.62 0.199219 18.46V7.54C0.199219 5.54027 0.993609 3.62244 2.40763 2.20842C3.82166 0.794391 5.73949 0 7.73922 0ZM7.47922 2.6C6.23801 2.6 5.04763 3.09307 4.16996 3.97074C3.29229 4.84841 2.79922 6.03879 2.79922 7.28V18.72C2.79922 21.307 4.89222 23.4 7.47922 23.4H18.9192C20.1604 23.4 21.3508 22.9069 22.2285 22.0293C23.1061 21.1516 23.5992 19.9612 23.5992 18.72V7.28C23.5992 4.693 21.5062 2.6 18.9192 2.6H7.47922ZM20.0242 4.55C20.4552 4.55 20.8685 4.7212 21.1733 5.02595C21.478 5.3307 21.6492 5.74402 21.6492 6.175C21.6492 6.60598 21.478 7.0193 21.1733 7.32405C20.8685 7.62879 20.4552 7.8 20.0242 7.8C19.5932 7.8 19.1799 7.62879 18.8752 7.32405C18.5704 7.0193 18.3992 6.60598 18.3992 6.175C18.3992 5.74402 18.5704 5.3307 18.8752 5.02595C19.1799 4.7212 19.5932 4.55 20.0242 4.55ZM13.1992 6.5C14.9231 6.5 16.5764 7.18482 17.7954 8.40381C19.0144 9.62279 19.6992 11.2761 19.6992 13C19.6992 14.7239 19.0144 16.3772 17.7954 17.5962C16.5764 18.8152 14.9231 19.5 13.1992 19.5C11.4753 19.5 9.82201 18.8152 8.60302 17.5962C7.38404 16.3772 6.69922 14.7239 6.69922 13C6.69922 11.2761 7.38404 9.62279 8.60302 8.40381C9.82201 7.18482 11.4753 6.5 13.1992 6.5ZM13.1992 9.1C12.1649 9.1 11.1729 9.51089 10.4415 10.2423C9.71011 10.9737 9.29922 11.9657 9.29922 13C9.29922 14.0343 9.71011 15.0263 10.4415 15.7577C11.1729 16.4891 12.1649 16.9 13.1992 16.9C14.2336 16.9 15.2255 16.4891 15.9569 15.7577C16.6883 15.0263 17.0992 14.0343 17.0992 13C17.0992 11.9657 16.6883 10.9737 15.9569 10.2423C15.2255 9.51089 14.2336 9.1 13.1992 9.1Z" fill="#EEEBF4"/>
</svg>
