<svg width="20" height="26" viewBox="0 0 20 26" fill="none" xmlns="http://www.w3.org/2000/svg">
<path d="M9.64287 1.87097C7.35147 1.87367 5.15469 2.78513 3.53443 4.40539C1.91416 6.02566 1.00271 8.22243 1.00001 10.5138C0.997265 12.3864 1.60892 14.2081 2.74115 15.6995C2.74115 15.6995 2.97687 16.0099 3.01537 16.0547L9.64287 23.871L16.2735 16.0508C16.3081 16.0091 16.5446 15.6995 16.5446 15.6995L16.5454 15.6972C17.677 14.2064 18.2884 12.3855 18.2857 10.5138C18.283 8.22243 17.3716 6.02566 15.7513 4.40539C14.131 2.78513 11.9343 1.87367 9.64287 1.87097ZM9.64287 13.6567C9.02127 13.6567 8.41363 13.4724 7.89679 13.127C7.37995 12.7817 6.97712 12.2908 6.73924 11.7165C6.50137 11.1423 6.43913 10.5103 6.5604 9.90069C6.68167 9.29103 6.98099 8.73103 7.42053 8.29149C7.86007 7.85196 8.42007 7.55263 9.02973 7.43136C9.63938 7.31009 10.2713 7.37233 10.8456 7.61021C11.4199 7.84808 11.9107 8.25091 12.2561 8.76775C12.6014 9.28459 12.7857 9.89223 12.7857 10.5138C12.7847 11.347 12.4532 12.1458 11.8641 12.735C11.2749 13.3242 10.4761 13.6556 9.64287 13.6567Z" stroke="#5E4A96" stroke-width="2"/>
</svg>
