<svg width="24" height="29" viewBox="0 0 24 29" fill="none" xmlns="http://www.w3.org/2000/svg">
<path d="M11.9858 1C9.27776 1.00319 6.68158 2.08037 4.76672 3.99522C2.85186 5.91008 1.77469 8.50627 1.7715 11.2143C1.76825 13.4273 2.49112 15.5802 3.82921 17.3429C3.82921 17.3429 4.10778 17.7096 4.15328 17.7626L11.9858 27L19.822 17.7579C19.8629 17.7087 20.1424 17.3429 20.1424 17.3429L20.1433 17.3401C21.4807 15.5782 22.2032 13.4263 22.2001 11.2143C22.1969 8.50627 21.1197 5.91008 19.2048 3.99522C17.29 2.08037 14.6938 1.00319 11.9858 1ZM11.9858 14.9286C11.2512 14.9286 10.533 14.7107 9.92223 14.3026C9.31142 13.8945 8.83535 13.3144 8.55423 12.6357C8.2731 11.957 8.19955 11.2102 8.34286 10.4897C8.48618 9.76916 8.83993 9.10734 9.35938 8.58789C9.87884 8.06844 10.5407 7.71468 11.2612 7.57137C11.9817 7.42805 12.7285 7.50161 13.4072 7.78273C14.0859 8.06386 14.666 8.53993 15.0741 9.15074C15.4822 9.76155 15.7001 10.4797 15.7001 11.2143C15.6988 12.199 15.3071 13.143 14.6108 13.8393C13.9145 14.5356 12.9705 14.9273 11.9858 14.9286Z" stroke="#EEEBF4" stroke-width="2"/>
</svg>
