<svg width="18" height="20" viewBox="0 0 18 20" fill="none" xmlns="http://www.w3.org/2000/svg">
<path d="M1 2.03333C1 1.89188 1.05619 1.75623 1.15621 1.65621C1.25623 1.55619 1.39188 1.5 1.53333 1.5H16.4667C16.6081 1.5 16.7438 1.55619 16.8438 1.65621C16.9438 1.75623 17 1.89188 17 2.03333V14.3C17 14.37 16.9862 14.4394 16.9594 14.5041C16.9326 14.5688 16.8933 14.6276 16.8438 14.6771C16.7943 14.7266 16.7355 14.7659 16.6708 14.7927C16.6061 14.8195 16.5367 14.8333 16.4667 14.8333H12.7867C12.7137 14.8332 12.6416 14.8481 12.5746 14.877C12.5076 14.9059 12.4473 14.9482 12.3973 15.0013L9.38844 18.1987C9.33858 18.2517 9.27839 18.2939 9.21159 18.3228C9.14478 18.3517 9.07278 18.3665 9 18.3665C8.92722 18.3665 8.85522 18.3517 8.78841 18.3228C8.72161 18.2939 8.66142 18.2517 8.61156 18.1987L5.60267 15.0013C5.55271 14.9482 5.49238 14.9059 5.42541 14.877C5.35845 14.8481 5.28627 14.8332 5.21333 14.8333H1.53333C1.39188 14.8333 1.25623 14.7771 1.15621 14.6771C1.05619 14.5771 1 14.4414 1 14.3V2.03333Z" stroke="#5E4A96" stroke-width="1.5"/>
<path d="M8.99989 5.05566L10.2666 7.34455L12.5554 8.61122L10.2666 9.87789L8.99989 12.1668L7.73322 9.87789L5.44434 8.61122L7.73322 7.34455L8.99989 5.05566Z" stroke="#5E4A96" stroke-width="1.5" stroke-linecap="round" stroke-linejoin="round"/>
</svg>
