<svg width="30" height="35" viewBox="0 0 30 35" fill="none" xmlns="http://www.w3.org/2000/svg">
<path d="M25.9048 24.7857V16.3667C25.0952 16.5286 24.2857 16.6905 23.4762 16.6905H22.6667V26.4048H6.47619V15.0714C6.47619 10.5381 10.0381 6.97619 14.5714 6.97619C14.7333 4.87143 15.7048 3.09048 17 1.63333C16.5143 0.985714 15.5429 0.5 14.5714 0.5C12.7905 0.5 11.3333 1.95714 11.3333 3.7381V4.22381C6.47619 5.68095 3.2381 10.0524 3.2381 15.0714V24.7857L0 28.0238V29.6429H29.1429V28.0238L25.9048 24.7857ZM11.3333 31.2619C11.3333 33.0429 12.7905 34.5 14.5714 34.5C16.3524 34.5 17.8095 33.0429 17.8095 31.2619H11.3333ZM29.1429 7.78571C29.1429 10.8619 26.5524 13.4524 23.4762 13.4524C20.4 13.4524 17.8095 10.8619 17.8095 7.78571C17.8095 4.70952 20.4 2.11905 23.4762 2.11905C26.5524 2.11905 29.1429 4.70952 29.1429 7.78571Z" fill="#EEEBF4"/>
</svg>
