<svg width="9" height="9" viewBox="0 0 9 9" fill="none" xmlns="http://www.w3.org/2000/svg">
<path d="M5.28193 0.65055L6.07511 2.24754C6.18199 2.4684 6.46888 2.67794 6.71078 2.72324L8.14525 2.96109C9.06219 3.114 9.27595 3.78224 8.61778 4.45049L7.49833 5.57744C7.31269 5.76432 7.20581 6.13243 7.26769 6.39859L7.58834 7.79171C7.84148 8.89035 7.25644 9.32075 6.2945 8.74311L4.95003 7.93895C4.70814 7.79171 4.30311 7.79171 4.06122 7.93895L2.71675 8.74311C1.75481 9.31509 1.16977 8.89035 1.42291 7.79171L1.74356 6.39859C1.79419 6.12676 1.68731 5.75866 1.50167 5.57178L0.382219 4.44482C-0.275951 3.78224 -0.0621865 3.114 0.854751 2.95543L2.28922 2.71758C2.53112 2.67794 2.81801 2.46274 2.92489 2.24188L3.71807 0.644887C4.15123 -0.215904 4.84877 -0.215904 5.28193 0.65055Z" fill="#D4CBED"/>
</svg>
