<svg width="25" height="25" viewBox="0 0 25 25" fill="none" xmlns="http://www.w3.org/2000/svg">
<path d="M5 18.5C5 17.4391 5.42143 16.4217 6.17157 15.6716C6.92172 14.9214 7.93913 14.5 9 14.5H17C18.0609 14.5 19.0783 14.9214 19.8284 15.6716C20.5786 16.4217 21 17.4391 21 18.5C21 19.0304 20.7893 19.5391 20.4142 19.9142C20.0391 20.2893 19.5304 20.5 19 20.5H7C6.46957 20.5 5.96086 20.2893 5.58579 19.9142C5.21071 19.5391 5 19.0304 5 18.5Z" stroke="#5E4A96" stroke-width="2" stroke-linejoin="round"/>
<path d="M13 10.5C14.6569 10.5 16 9.15685 16 7.5C16 5.84315 14.6569 4.5 13 4.5C11.3431 4.5 10 5.84315 10 7.5C10 9.15685 11.3431 10.5 13 10.5Z" stroke="#5E4A96" stroke-width="2"/>
</svg>
