<svg width="22" height="23" viewBox="0 0 22 23" fill="none" xmlns="http://www.w3.org/2000/svg">
<path d="M18.794 4.07203C17.7804 3.05335 16.5732 2.24567 15.2426 1.69609C13.9121 1.14651 12.4849 0.866044 11.0442 0.871037C5.00804 0.871037 0.0884424 5.76602 0.0884424 11.772C0.0884424 13.697 0.596985 15.567 1.54774 17.217L0 22.871L5.80402 21.353C7.40703 22.222 9.20904 22.684 11.0442 22.684C17.0804 22.684 22 17.789 22 11.783C22 8.86801 20.8613 6.12902 18.794 4.07203ZM11.0442 20.836C9.40804 20.836 7.80502 20.396 6.401 19.571L6.06935 19.373L2.6201 20.275L3.53769 16.931L3.31658 16.59C2.40756 15.1457 1.92488 13.4762 1.92362 11.772C1.92362 6.77802 6.01407 2.70803 11.0332 2.70803C13.4653 2.70803 15.7538 3.65403 17.4673 5.37002C18.3158 6.21038 18.9882 7.20995 19.4456 8.31078C19.9029 9.41162 20.1361 10.5918 20.1317 11.783C20.1538 16.777 16.0633 20.836 11.0442 20.836ZM16.0412 14.06C15.7648 13.928 14.4161 13.268 14.1729 13.169C13.9186 13.081 13.7417 13.037 13.5538 13.301C13.3658 13.576 12.8462 14.192 12.6915 14.368C12.5367 14.555 12.3709 14.577 12.0945 14.434C11.8181 14.302 10.9337 14.005 9.89447 13.081C9.07638 12.355 8.53467 11.464 8.36884 11.189C8.21407 10.914 8.34673 10.771 8.49045 10.628C8.61206 10.507 8.76683 10.309 8.8995 10.155C9.03216 10.001 9.08744 9.88001 9.17588 9.70401C9.26432 9.51701 9.2201 9.36301 9.15377 9.23101C9.08744 9.09901 8.53467 7.75702 8.31357 7.20702C8.09246 6.67902 7.8603 6.74502 7.69447 6.73402H7.16382C6.97588 6.73402 6.68844 6.80002 6.43417 7.07502C6.19095 7.35002 5.48342 8.01002 5.48342 9.35201C5.48342 10.694 6.46734 11.992 6.6 12.168C6.73266 12.355 8.53467 15.105 11.2764 16.282C11.9286 16.568 12.4372 16.733 12.8352 16.854C13.4874 17.063 14.0844 17.03 14.5598 16.964C15.0905 16.887 16.1849 16.304 16.406 15.666C16.6382 15.028 16.6382 14.489 16.5608 14.368C16.4834 14.247 16.3176 14.192 16.0412 14.06Z" fill="#5E4A96"/>
</svg>
