<svg width="27" height="26" viewBox="0 0 27 26" fill="none" xmlns="http://www.w3.org/2000/svg">
<path d="M22.4103 3.78307C21.2124 2.57917 19.7857 1.62464 18.2132 0.975141C16.6407 0.325641 14.954 -0.00582413 13.2515 7.74403e-05C6.11781 7.74403e-05 0.303742 5.78506 0.303742 12.883C0.303742 15.158 0.904746 17.368 2.02836 19.318L0.199219 26L7.05852 24.206C8.95299 25.233 11.0826 25.779 13.2515 25.779C20.3851 25.779 26.1992 19.994 26.1992 12.896C26.1992 9.45105 24.8535 6.21406 22.4103 3.78307ZM13.2515 23.595C11.3178 23.595 9.42334 23.075 7.76404 22.1L7.37208 21.866L3.2957 22.932L4.38012 18.98L4.11882 18.577C3.04452 16.8701 2.47408 14.897 2.47259 12.883C2.47259 6.98106 7.30676 2.17107 13.2384 2.17107C16.1128 2.17107 18.8173 3.28907 20.8424 5.31706C21.8452 6.31021 22.6398 7.49152 23.1803 8.7925C23.7208 10.0935 23.9964 11.4883 23.9912 12.896C24.0173 18.798 19.1831 23.595 13.2515 23.595ZM19.157 15.587C18.8304 15.431 17.2364 14.651 16.949 14.534C16.6485 14.43 16.4394 14.378 16.2173 14.69C15.9952 15.015 15.3811 15.743 15.1982 15.951C15.0153 16.172 14.8193 16.198 14.4927 16.029C14.1661 15.873 13.1208 15.522 11.8927 14.43C10.9259 13.572 10.2857 12.519 10.0897 12.194C9.90676 11.869 10.0635 11.7 10.2334 11.531C10.3771 11.388 10.56 11.154 10.7168 10.972C10.8736 10.79 10.9389 10.647 11.0434 10.439C11.148 10.218 11.0957 10.036 11.0173 9.88005C10.9389 9.72405 10.2857 8.13805 10.0243 7.48806C9.76304 6.86406 9.48867 6.94206 9.29269 6.92906H8.66555C8.44344 6.92906 8.10374 7.00706 7.80324 7.33206C7.5158 7.65705 6.67962 8.43705 6.67962 10.023C6.67962 11.609 7.84243 13.143 7.99922 13.351C8.156 13.572 10.2857 16.822 13.5259 18.213C14.2967 18.551 14.8977 18.746 15.3681 18.889C16.1389 19.136 16.8444 19.097 17.4063 19.019C18.0334 18.928 19.3269 18.239 19.5882 17.485C19.8625 16.731 19.8625 16.094 19.7711 15.951C19.6796 15.808 19.4836 15.743 19.157 15.587Z" fill="#EEEBF4"/>
</svg>
