<svg width="22" height="22" viewBox="0 0 22 22" fill="none" xmlns="http://www.w3.org/2000/svg">
<path d="M9.17779 11.2039C6.21061 11.2039 3.73414 11.2039 3.67341 11.2039C3.61269 11.2039 3.52571 11.212 3.47976 11.2169L3.30416 11.2379L3.14004 11.2655L2.96444 11.3027L2.7593 11.3561L2.58041 11.4127L2.4163 11.4743C2.36871 11.4921 2.28501 11.5277 2.23085 11.5519C2.17669 11.5762 2.08971 11.6199 2.03556 11.6491L1.87144 11.7429L1.72046 11.8368C1.67451 11.8676 1.59737 11.921 1.55635 11.9582C1.51532 11.9954 1.4267 12.0569 1.37746 12.0974C1.32823 12.1379 1.21335 12.2399 1.13129 12.324C1.04924 12.4082 0.945839 12.515 0.906452 12.5603C0.867065 12.6057 0.807986 12.6801 0.775163 12.7222C0.74234 12.7643 0.68162 12.8484 0.643874 12.9035L0.528992 13.0815C0.504375 13.1252 0.458421 13.2062 0.42888 13.2612C0.39934 13.3162 0.359956 13.3988 0.340262 13.4425C0.320569 13.4862 0.289385 13.5574 0.271332 13.6043C0.25328 13.6513 0.22374 13.7273 0.205688 13.7775C0.187635 13.8277 0.159735 13.9151 0.143324 13.9734C0.126912 14.0316 0.102297 14.1255 0.0891683 14.1838C0.0760392 14.2421 0.0563455 14.3359 0.0481399 14.3926C0.0399342 14.4492 0.0251617 14.5399 0.0202383 14.5933C0.0153149 14.6467 0.0071116 14.7422 0.00218818 14.8053C-0.00273523 14.8684 0.00218818 16.1115 0.00218818 18.2303C0.00218818 20.4202 0.00218818 21.5662 0.00218818 21.6196C0.00218818 21.673 0.0153149 21.7313 0.0202383 21.7669C0.0251617 21.8025 0.0415751 21.8689 0.0530631 21.9158L0.0743987 22H8.60832V14.9801H11.2784C13.366 14.9801 13.9666 14.9801 14.0257 14.9688L14.2128 14.9445C14.2735 14.9348 14.3589 14.9202 14.4015 14.9105L14.5295 14.883L14.5804 14.8701V11.2039H9.17779ZM4.5104 3.71145H4.33315C4.28227 3.71145 4.19201 3.7244 4.13129 3.73087C4.07057 3.73734 3.98031 3.75353 3.93107 3.76324C3.88184 3.77295 3.79485 3.79076 3.74234 3.80371C3.68982 3.81666 3.58643 3.84741 3.51422 3.87169C3.44201 3.89597 3.33862 3.9332 3.28446 3.95586C3.23031 3.97852 3.14825 4.01575 3.1023 4.03841C3.05634 4.06107 2.98249 4.09991 2.93818 4.12419C2.89387 4.14847 2.82002 4.19379 2.77407 4.22455C2.72812 4.2553 2.65591 4.30386 2.61816 4.33137C2.58042 4.35889 2.50985 4.41392 2.4639 4.45277C2.41794 4.49161 2.33096 4.5693 2.27352 4.62595C2.21608 4.68261 2.14059 4.76192 2.10941 4.804C2.07823 4.84609 2.01586 4.9173 1.98304 4.96586C1.95022 5.01442 1.89934 5.07593 1.87308 5.11639C1.84683 5.15686 1.80415 5.2216 1.7779 5.2653C1.75164 5.30901 1.70897 5.3867 1.68107 5.44011C1.65317 5.49352 1.6105 5.58417 1.58589 5.64243C1.56127 5.7007 1.52188 5.8043 1.49891 5.86904C1.47593 5.93379 1.44475 6.04547 1.42834 6.11507C1.41193 6.18467 1.39059 6.27693 1.38239 6.32225C1.37418 6.36757 1.36433 6.43717 1.35776 6.48411C1.3512 6.53105 1.34464 6.61198 1.33971 6.6751C1.33479 6.73823 1.33971 6.85153 1.33971 6.9535C1.33971 7.05547 1.33971 7.15745 1.35448 7.20762C1.36925 7.2578 1.36925 7.32902 1.37418 7.36948C1.3791 7.40995 1.39387 7.47307 1.40208 7.52001C1.41028 7.56695 1.42998 7.64302 1.44311 7.69158C1.45624 7.74014 1.47921 7.81783 1.49398 7.86315C1.50875 7.90847 1.54157 7.99426 1.56455 8.05253C1.58753 8.1108 1.6384 8.21439 1.67451 8.29209C1.71061 8.36978 1.76805 8.46689 1.79759 8.51545C1.82713 8.56401 1.88129 8.64494 1.91411 8.69188C1.94694 8.73882 2.00273 8.81166 2.03556 8.85374C2.06838 8.89582 2.13567 8.97028 2.18162 9.0156C2.22757 9.06092 2.30142 9.13861 2.34573 9.17746L2.48851 9.30209L2.61816 9.40244C2.65591 9.42996 2.7314 9.48337 2.78228 9.51898C2.83315 9.55459 2.92833 9.60801 2.98413 9.64038C3.03993 9.67275 3.13512 9.71807 3.19256 9.74397C3.25 9.76987 3.34847 9.81033 3.40919 9.83299C3.46991 9.85565 3.5733 9.88802 3.62746 9.90421C3.68162 9.9204 3.77024 9.94305 3.81291 9.95277L3.96061 9.98352C3.99836 9.98352 4.064 10.0013 4.10831 10.0062C4.15263 10.011 4.22483 10.0207 4.27243 10.024L4.4546 10.0353C4.50875 10.0353 4.61871 10.0353 4.68928 10.0353C4.75985 10.0353 4.87472 10.0207 4.93709 10.0127C4.99945 10.0046 5.1012 9.98999 5.15372 9.97866C5.20623 9.96733 5.29814 9.94791 5.34901 9.93496C5.39989 9.92202 5.4803 9.89935 5.5279 9.88317C5.57549 9.86698 5.66083 9.83785 5.71827 9.81519C5.77571 9.79253 5.88238 9.74559 5.95952 9.70836C6.03665 9.67113 6.14004 9.6161 6.19256 9.58535C6.24508 9.55459 6.32385 9.5028 6.36816 9.47204C6.41247 9.44129 6.4896 9.38464 6.53227 9.34579C6.57494 9.30694 6.66028 9.24058 6.70788 9.19688C6.75547 9.15318 6.82932 9.08196 6.87199 9.03502C6.91466 8.98808 6.9721 8.92496 7.00164 8.88935C7.03118 8.85374 7.07713 8.79709 7.10175 8.76471L7.2035 8.62066C7.23468 8.57534 7.28227 8.49765 7.31181 8.44909C7.34135 8.40053 7.3791 8.32931 7.39716 8.28723C7.41521 8.24515 7.45131 8.17393 7.47593 8.12537C7.50054 8.07681 7.53829 7.9716 7.55963 7.91171C7.58096 7.85183 7.6105 7.74985 7.62527 7.70291C7.64004 7.65597 7.66138 7.55886 7.67287 7.50221C7.68435 7.44556 7.69748 7.36787 7.70405 7.33064C7.71061 7.29341 7.71718 7.22543 7.7221 7.18172C7.72702 7.13802 7.73194 7.01986 7.73194 6.858C7.73498 6.74724 7.7306 6.63639 7.71882 6.52619C7.71882 6.47116 7.69913 6.38376 7.68928 6.32872C7.67943 6.27369 7.65974 6.17495 7.64168 6.10859C7.62363 6.04223 7.59409 5.93702 7.5744 5.87713C7.5547 5.81725 7.52352 5.73146 7.50547 5.68614C7.48742 5.64082 7.43982 5.54047 7.40044 5.46277C7.36105 5.38508 7.29869 5.27178 7.26094 5.21189C7.22319 5.152 7.16411 5.0646 7.12965 5.01604C7.09519 4.96748 7.03118 4.88817 6.99179 4.84123C6.95241 4.79429 6.87856 4.71498 6.82768 4.6648C6.77681 4.61463 6.7046 4.54503 6.66357 4.50294C6.62254 4.46086 6.55361 4.41068 6.51258 4.37831C6.47155 4.34594 6.39113 4.28929 6.33698 4.25206L6.15809 4.13876C6.11378 4.11448 6.03501 4.07078 5.98085 4.04488C5.9267 4.01898 5.84792 3.98014 5.80525 3.96233L5.64114 3.89758C5.5919 3.87816 5.49344 3.84741 5.42287 3.82637C5.3523 3.80533 5.2407 3.77943 5.17505 3.76648C5.10941 3.75353 5.01094 3.73735 4.94201 3.72925C4.87308 3.72116 4.7779 3.71145 4.71389 3.70821H4.51368L4.5104 3.71145ZM16.0837 1.29488V0L16.0115 0.0291336C15.9705 0.0453196 15.8917 0.079312 15.8326 0.106828C15.7735 0.134344 15.6833 0.178044 15.6291 0.20556L15.4486 0.307533C15.4043 0.33343 15.3189 0.386844 15.2615 0.424072L15.0793 0.550323L14.9152 0.676573C14.8676 0.71542 14.7888 0.783401 14.738 0.828722C14.6871 0.874043 14.605 0.953354 14.5542 1.00515C14.5033 1.05694 14.4212 1.14435 14.3736 1.19938C14.326 1.25442 14.2506 1.34829 14.2095 1.40656C14.1685 1.46483 14.0979 1.55871 14.0602 1.61374C14.0224 1.66878 13.9666 1.75618 13.9354 1.80959C13.9043 1.86301 13.8501 1.95689 13.8173 2.02163C13.7845 2.08637 13.7385 2.1754 13.7172 2.22234C13.6958 2.26928 13.6614 2.35021 13.6384 2.40686C13.6154 2.46351 13.576 2.56871 13.5498 2.64803C13.5235 2.72734 13.4874 2.84873 13.4677 2.92319C13.448 2.99765 13.4234 3.10609 13.4136 3.16436C13.4037 3.22263 13.3857 3.31327 13.3775 3.36507C13.3693 3.41686 13.3594 3.50589 13.3528 3.56254C13.3463 3.61919 13.3397 3.75515 13.3381 3.90892C13.3364 4.06268 13.3381 4.19703 13.3381 4.26663C13.3381 4.33623 13.3496 4.41877 13.3561 4.46895C13.3627 4.51913 13.3758 4.61787 13.3873 4.68585C13.3988 4.75383 13.4185 4.86065 13.4316 4.92054C13.4448 4.98043 13.471 5.0824 13.4907 5.14553C13.5104 5.20865 13.5399 5.30739 13.5613 5.37051C13.5826 5.43364 13.6187 5.53237 13.6417 5.58417C13.6647 5.63596 13.7057 5.73308 13.7319 5.78973C13.7582 5.84638 13.8042 5.93864 13.8353 5.99367C13.8665 6.04871 13.9141 6.13449 13.9437 6.18143C13.9732 6.22837 14.0257 6.31092 14.0618 6.36595C14.0979 6.42098 14.1619 6.50839 14.2013 6.56018C14.2407 6.61198 14.3014 6.68643 14.3359 6.72204C14.3703 6.75765 14.4442 6.84506 14.5 6.90333C14.5558 6.96159 14.6477 7.05385 14.7051 7.10565C14.7626 7.15745 14.843 7.22866 14.884 7.26751C14.9251 7.30636 15.0022 7.36139 15.0481 7.40024C15.0941 7.43908 15.1893 7.50221 15.2484 7.54105C15.3074 7.5799 15.3928 7.63332 15.4371 7.65921L15.5733 7.7369L15.6275 7.76442V20.2552L15.6389 20.3183C15.6389 20.3539 15.657 20.4138 15.6652 20.451C15.6789 20.5057 15.6954 20.5597 15.7144 20.6129C15.7389 20.685 15.7685 20.7553 15.8031 20.8233C15.8347 20.8879 15.8704 20.9506 15.9097 21.011C15.9393 21.0531 15.9852 21.1162 16.0131 21.1502C16.041 21.1842 16.0968 21.2441 16.1379 21.2846C16.1789 21.325 16.2412 21.3785 16.2741 21.406C16.3069 21.4335 16.3693 21.4756 16.4086 21.5015C16.448 21.5274 16.5202 21.5678 16.5728 21.5921C16.6253 21.6164 16.6926 21.6472 16.7369 21.6617C16.7812 21.6763 16.8337 21.6973 16.8665 21.707L16.9847 21.7378L17.116 21.7621C17.2797 21.7762 17.4441 21.7811 17.6083 21.7766C17.8955 21.7766 18.0662 21.7766 18.1253 21.7766C18.1844 21.7766 18.2549 21.7621 18.3042 21.7524C18.3534 21.7426 18.4272 21.7265 18.4683 21.7151C18.5093 21.7038 18.5733 21.6811 18.6127 21.6666C18.6521 21.652 18.7226 21.6196 18.767 21.597C18.8113 21.5743 18.8786 21.5371 18.913 21.5144C18.9475 21.4918 19.0049 21.4529 19.0427 21.4238C19.0804 21.3946 19.1493 21.3348 19.1953 21.2911C19.2413 21.2473 19.2987 21.1826 19.3249 21.1519C19.3512 21.1211 19.3972 21.0564 19.4267 21.0127C19.4659 20.9533 19.5016 20.8917 19.5334 20.8281C19.5596 20.7731 19.5974 20.6873 19.6138 20.6388C19.6302 20.5902 19.6532 20.5157 19.663 20.4769C19.6729 20.4381 19.686 20.3717 19.6926 20.3345L19.7041 20.2665V14.0187V7.76928L19.7533 7.74176L19.8895 7.66568C19.9371 7.63655 20.0208 7.58476 20.0766 7.54753C20.1324 7.5103 20.2194 7.45041 20.2702 7.41318C20.3211 7.37596 20.395 7.31769 20.4344 7.2837C20.4737 7.24971 20.5492 7.18658 20.5985 7.14288C20.6477 7.09918 20.7298 7.02148 20.7806 6.96807C20.8315 6.91465 20.9136 6.82725 20.9612 6.77384C21.0088 6.72043 21.0842 6.62655 21.1253 6.56666C21.1663 6.50677 21.2451 6.4048 21.2894 6.3352C21.3337 6.2656 21.401 6.16201 21.4354 6.1005C21.4699 6.03899 21.5306 5.92893 21.5667 5.85609C21.6028 5.78325 21.6521 5.67481 21.6767 5.61492C21.7013 5.55503 21.7473 5.43526 21.7768 5.34623C21.8063 5.25721 21.8457 5.1342 21.8622 5.06783C21.8786 5.00147 21.9048 4.89626 21.9179 4.8299C21.9311 4.76354 21.9491 4.65833 21.959 4.59359C21.9688 4.52884 21.9819 4.41716 21.9885 4.34756C21.9951 4.27796 22 4.15656 22 3.98499C22 3.81342 22 3.71145 21.9885 3.62081C21.977 3.53016 21.9688 3.44276 21.959 3.3764C21.9491 3.31003 21.9294 3.19835 21.9147 3.12551C21.8999 3.05268 21.872 2.93614 21.8523 2.86654C21.8326 2.79694 21.7998 2.68687 21.7768 2.61889C21.7538 2.55091 21.7161 2.45703 21.6931 2.39552C21.6701 2.33402 21.6291 2.245 21.6012 2.18511C21.5733 2.12522 21.5241 2.02325 21.4913 1.96984C21.4584 1.91642 21.4108 1.82578 21.3829 1.78208C21.355 1.73838 21.3058 1.66068 21.273 1.61051C21.2402 1.56033 21.1794 1.47778 21.1433 1.42922C21.1072 1.38066 21.0367 1.29326 20.9792 1.23661C20.9218 1.17996 20.8151 1.05694 20.7216 0.964684C20.628 0.872424 20.5164 0.767214 20.4737 0.731605C20.4311 0.695996 20.3589 0.639347 20.3096 0.606975L20.157 0.495291C20.116 0.466156 20.0372 0.414359 19.9929 0.381987C19.9486 0.349615 19.8583 0.29944 19.8107 0.271924L19.5662 0.145673C19.4792 0.103589 19.3693 0.053414 19.3233 0.0356094L19.2396 0.00162018V1.22852C19.2396 1.99573 19.2396 2.48455 19.2314 2.53311C19.2232 2.58167 19.2199 2.63346 19.215 2.6626C19.2101 2.69173 19.1937 2.74515 19.1805 2.78399C19.1646 2.82876 19.146 2.87255 19.1247 2.9151C19.1038 2.95562 19.0808 2.99505 19.0558 3.03325C19.0308 3.07006 19.0034 3.10521 18.9737 3.13847C18.9491 3.16436 18.9065 3.20644 18.8786 3.23072C18.8438 3.26224 18.8064 3.29093 18.767 3.31651C18.7268 3.34265 18.6852 3.36643 18.6422 3.38773C18.6078 3.40391 18.552 3.42657 18.5192 3.4379L18.4043 3.46866C18.3747 3.46866 18.3222 3.48161 18.2861 3.48484C18.25 3.48808 17.9726 3.48484 17.6493 3.48484C17.2932 3.48484 17.0503 3.48484 17.0093 3.48484C16.9657 3.48046 16.9224 3.47343 16.8796 3.4638C16.8452 3.4638 16.791 3.44114 16.7598 3.42981C16.7144 3.41297 16.67 3.39351 16.6269 3.37154C16.5766 3.34482 16.5283 3.31453 16.4825 3.2809C16.4352 3.24553 16.3907 3.20656 16.3496 3.16436C16.3103 3.12271 16.2741 3.07836 16.2413 3.03164C16.2166 2.99279 16.1822 2.93614 16.1674 2.90539C16.1526 2.87463 16.1313 2.82284 16.1198 2.79046C16.1083 2.75809 16.0919 2.70144 16.0821 2.66421L16.0673 2.59947L16.0837 1.29488Z" fill="#5E4A96"/>
</svg>
